<?xml version="1.0" standalone="no"?>
<!DOCTYPE svg PUBLIC "-//W3C//DTD SVG 20010904//EN"
 "http://www.w3.org/TR/2001/REC-SVG-20010904/DTD/svg10.dtd">
<svg version="1.0" xmlns="http://www.w3.org/2000/svg"
 width="512.000000pt" height="512.000000pt" viewBox="0 0 512.000000 512.000000"
 preserveAspectRatio="xMidYMid meet">
<metadata>
Created by potrace 1.11, written by Peter Selinger 2001-2013
</metadata>
<g transform="translate(0.000000,512.000000) scale(0.100000,-0.100000)"
fill="#000000" stroke="none">
<path d="M2350 5113 c-368 -33 -689 -118 -996 -264 -599 -284 -1057 -785
-1248 -1364 -71 -214 -98 -377 -101 -607 -4 -369 67 -674 230 -986 51 -97 157
-263 208 -326 l24 -29 -62 -146 c-34 -80 -137 -326 -230 -546 -175 -413 -186
-450 -162 -519 26 -75 109 -136 185 -136 38 0 375 137 1211 494 l155 65 125
-40 c127 -41 287 -79 416 -99 39 -6 81 -13 95 -15 115 -18 461 -27 524 -13
161 36 206 246 75 350 -46 37 -57 39 -244 43 -159 3 -287 11 -335 20 -38 8
-61 12 -110 20 -88 14 -247 57 -385 104 -93 32 -152 47 -175 45 -41 -5 -112
-31 -263 -98 -32 -14 -60 -26 -62 -26 -3 0 -24 -9 -48 -19 -105 -49 -590 -251
-593 -248 -2 2 62 158 142 348 80 189 152 364 160 389 15 49 11 108 -11 149
-12 25 -99 138 -115 151 -11 8 -104 151 -143 217 -63 110 -147 317 -162 404
-3 18 -8 36 -11 40 -6 10 -21 92 -30 169 -10 82 -11 325 -1 406 50 431 321
893 691 1179 21 17 44 35 50 40 40 37 224 148 351 210 213 106 515 199 710
220 33 3 89 10 125 14 64 8 422 6 470 -2 14 -3 52 -8 85 -11 33 -4 71 -9 85
-12 14 -3 36 -8 50 -11 780 -146 1429 -695 1623 -1373 23 -79 37 -143 52 -230
3 -19 8 -102 10 -185 6 -263 -31 -449 -141 -701 -51 -120 -61 -168 -44 -220
19 -57 47 -92 93 -116 115 -58 225 -18 284 105 110 224 176 450 202 687 9 84
7 404 -3 447 -2 11 -8 43 -11 70 -45 318 -194 664 -410 952 -71 94 -269 305
-365 387 -225 192 -565 381 -865 479 -101 33 -267 78 -330 89 -16 3 -42 7 -57
10 -61 13 -86 16 -143 22 -33 3 -67 8 -75 11 -17 6 -444 11 -500 6z"/>
<path d="M1584 3087 c-87 -34 -128 -94 -128 -187 0 -120 74 -194 194 -195 56
0 71 4 109 30 60 40 86 93 85 170 0 73 -28 125 -87 162 -46 29 -127 39 -173
20z"/>
<path d="M2473 3085 c-182 -83 -149 -350 47 -381 60 -10 124 12 169 58 47 46
60 79 57 144 -3 105 -78 183 -182 190 -38 2 -70 -2 -91 -11z"/>
<path d="M3364 3077 c-175 -84 -137 -341 54 -372 131 -21 249 95 228 224 -21
133 -160 206 -282 148z"/>
<path d="M2824 2384 c-40 -17 -91 -68 -108 -108 -24 -55 -10 -124 79 -416 47
-157 99 -328 114 -380 53 -180 18 -139 633 -752 310 -309 585 -579 612 -600
135 -107 330 -151 499 -112 118 28 249 106 322 193 44 52 97 150 117 216 31
100 31 254 1 350 -45 143 -57 156 -685 783 -356 355 -600 591 -620 599 -30 13
-61 22 -178 54 -19 5 -39 11 -45 13 -5 1 -30 8 -55 15 -25 7 -126 35 -225 62
-99 28 -187 52 -195 54 -8 2 -40 11 -70 20 -73 22 -158 26 -196 9z m574 -530
c92 -26 176 -49 186 -52 22 -6 746 -723 746 -738 0 -5 -62 -71 -138 -147
l-137 -137 -371 373 -371 372 -52 171 c-63 210 -65 218 -45 210 8 -3 90 -27
182 -52z m1294 -1154 c81 -132 -36 -315 -189 -296 -54 6 -73 15 -121 54 l-44
35 143 143 143 143 26 -27 c14 -15 33 -38 42 -52z"/>
</g>
</svg>
